<?xml version="1.0" encoding="iso-8859-1"?>
<!-- Uploaded to: SVG Repo, www.svgrepo.com, Generator: SVG Repo Mixer Tools -->
<svg fill="#000000" version="1.1" id="Layer_1" xmlns="http://www.w3.org/2000/svg" xmlns:xlink="http://www.w3.org/1999/xlink" 
	 viewBox="0 0 511.997 511.997" xml:space="preserve">
<g>
	<g>
		<path d="M344.721,0H167.275c-21.462,0-38.922,17.46-38.922,38.922v244.449c0,19.743,16.062,35.805,35.805,35.805
			c11.081,0,20.096,9.015,20.096,20.096v35.937h15.709v-35.937c0-19.743-16.062-35.805-35.805-35.805
			c-11.081,0-20.096-9.015-20.096-20.096V38.922c0-12.8,10.413-23.213,23.213-23.213h177.446c12.8,0,23.213,10.413,23.213,23.213
			v244.449c0,11.081-9.015,20.096-20.097,20.096c-19.744,0-35.805,16.062-35.805,35.805v35.937h15.709v-35.937
			c0-11.081,9.015-20.096,20.096-20.096c19.744,0,35.806-16.062,35.806-35.805V38.922C383.642,17.46,366.182,0,344.721,0z"/>
	</g>
</g>
<g>
	<g>
		<path d="M160.297,383.327v55.639h191.4v-55.639H160.297z M335.988,423.257H176.006v-24.221h159.982V423.257z"/>
	</g>
</g>
<g>
	<g>
		<rect x="183.74" y="448.114" width="144.522" height="15.709"/>
	</g>
</g>
<g>
	<g>
		<rect x="200.497" y="472.201" width="111.01" height="15.709"/>
	</g>
</g>
<g>
	<g>
		<rect x="216.206" y="496.288" width="79.592" height="15.709"/>
	</g>
</g>
<g>
	<g>
		<polygon points="288.505,246.356 255.997,262.61 223.489,246.356 195.739,264.856 204.453,277.927 215.154,270.793 
			215.154,375.856 230.863,375.856 230.863,267.606 255.997,280.173 279.037,268.654 279.037,375.856 294.746,375.856 
			294.746,269.396 307.543,277.927 316.256,264.856 		"/>
	</g>
</g>
<g>
	<g>
		<path d="M263.648,134.504c-15.293-5.826-22.336-10.197-22.336-19.906c0-8.738,7.043-16.019,19.661-16.019
			c10.926,0,19.419,3.884,24.036,6.797l5.335-15.535c-6.4-3.794-16.51-7.118-28.063-7.269v-18.8h-15.709v20.834
			c-16.24,4.813-25.646,17.57-25.646,32.421c0,14.077,9.951,25.728,31.07,33.254c15.777,5.826,21.844,11.41,21.844,21.603
			c0.002,9.709-7.283,17.477-22.818,17.477c-10.677,0-21.845-4.367-28.154-8.493l-5.342,16.261
			c7.396,4.351,17.72,7.329,29.046,7.902v17.926h15.709v-18.779c20.61-3.552,32.188-16.696,32.188-34.235
			C294.469,152.465,284.034,142.272,263.648,134.504z"/>
	</g>
</g>
<g>
	<g>
		<rect x="319.885" y="136.029" width="32.465" height="15.709"/>
	</g>
</g>
<g>
	<g>
		
			<rect x="320.583" y="200.098" transform="matrix(0.7071 -0.7071 0.7071 0.7071 -56.5874 295.5246)" width="15.709" height="31.943"/>
	</g>
</g>
<g>
	<g>
		
			<rect x="167.56" y="208.202" transform="matrix(0.7071 -0.7071 0.7071 0.7071 -99.0199 193.0582)" width="31.943" height="15.709"/>
	</g>
</g>
<g>
	<g>
		<rect x="159.653" y="136.029" width="32.465" height="15.709"/>
	</g>
</g>
<g>
	<g>
		<rect x="175.693" y="55.203" transform="matrix(0.7071 -0.7071 0.7071 0.7071 3.4316 150.6339)" width="15.709" height="31.943"/>
	</g>
</g>
<g>
	<g>
		
			<rect x="312.485" y="63.311" transform="matrix(0.7071 -0.7071 0.7071 0.7071 45.8814 253.0978)" width="31.943" height="15.709"/>
	</g>
</g>
</svg>